<svg width="36" height="10" viewBox="0 0 36 10" fill="none" xmlns="http://www.w3.org/2000/svg">
<path d="M0.490929 7.69895C0.603494 7.77935 0.706009 7.85775 0.798473 7.93413C0.894957 8.01051 1.0035 8.08288 1.12411 8.15122C1.24471 8.21554 1.36934 8.27183 1.49798 8.32007C1.7794 8.43263 2.09498 8.48892 2.44474 8.48892C3.03168 8.48892 3.43571 8.3462 3.65682 8.06077C3.84577 7.81554 3.94025 7.57432 3.94025 7.33713C3.94025 7.09592 3.91612 6.90697 3.86788 6.77029C3.77542 6.5331 3.59049 6.30998 3.3131 6.10093C3.19651 6.02052 3.05782 5.93409 2.89701 5.84163L1.90804 5.35317C1.53819 5.15216 1.25677 4.95719 1.06381 4.76824C0.870836 4.57929 0.72611 4.40441 0.629625 4.2436C0.416556 3.88581 0.310021 3.42148 0.310021 2.85061C0.310021 2.27974 0.51706 1.78325 0.931139 1.36113C1.34522 0.939013 1.88392 0.727954 2.54725 0.727954C2.96937 0.727954 3.34727 0.782226 3.68094 0.890771C4.01864 0.999316 4.28598 1.12997 4.48297 1.28274L4.25382 2.11492C3.77542 1.74506 3.23269 1.56013 2.62565 1.56013C2.24373 1.56013 1.94423 1.68677 1.72714 1.94004C1.51407 2.19331 1.40753 2.51895 1.40753 2.91694C1.40753 3.09785 1.43768 3.26268 1.49798 3.41143C1.59849 3.67676 1.80754 3.91395 2.12513 4.123C2.24976 4.21144 2.42263 4.30391 2.64374 4.40039L3.59049 4.88281C3.75934 4.97528 3.90808 5.06774 4.03673 5.1602C4.1694 5.24865 4.30005 5.35719 4.4287 5.48584C4.83474 5.89188 5.03776 6.41651 5.03776 7.05974C5.03776 7.69895 4.81866 8.23765 4.38046 8.67585C3.94226 9.11405 3.37139 9.33315 2.66786 9.33315C1.89598 9.33315 1.26079 9.19647 0.762291 8.9231C0.492939 8.77837 0.279869 8.65173 0.123082 8.54319L0.490929 7.69895ZM5.96642 0.836499H12.4128V1.67471H9.73534V9.22461H8.64386V1.67471H5.96642V0.836499ZM18.3888 6.78838H15.0842L14.1797 9.22461H13.1666L16.3144 0.836499H17.2189L20.3667 9.22461H19.2933L18.3888 6.78838ZM18.0752 5.94414L16.7365 2.32598L15.3917 5.94414H18.0752ZM21.0662 5.02754C21.0662 4.17928 21.2411 3.43153 21.5909 2.78428C21.9366 2.13703 22.4391 1.63249 23.0984 1.27068C23.7577 0.908862 24.5296 0.727954 25.414 0.727954C26.1739 0.727954 26.7266 0.790267 27.0724 0.914892C27.4181 1.0355 27.6714 1.14002 27.8322 1.22847C27.997 1.31289 28.2081 1.43752 28.4654 1.60234L28.0432 2.40437C27.1829 1.84958 26.3146 1.57219 25.4382 1.57219C24.9477 1.57219 24.4974 1.66868 24.0874 1.86165C23.3035 2.22748 22.7567 2.85061 22.4472 3.73103C22.2984 4.14511 22.224 4.55316 22.224 4.95518C22.224 6.14917 22.5939 7.08989 23.3336 7.77734C23.8241 8.25173 24.4371 8.48892 25.1728 8.48892H25.2452C25.8965 8.48892 26.5578 8.33816 27.2292 8.03665V6.05269H25.4382V5.21448L28.3206 5.20845L28.3146 8.46479C27.4583 9.0437 26.4131 9.33315 25.1789 9.33315C23.9447 9.33315 22.9497 8.93717 22.1939 8.14519C21.4421 7.35321 21.0662 6.314 21.0662 5.02754ZM31.6071 5.34111V8.38037H35.3097V9.22461H30.5157V0.836499H35.3097V1.67471H31.6071V4.49687H34.1278V5.34111H31.6071Z" fill="white"/>
</svg>
