<svg width="99" height="105" viewBox="0 0 99 105" fill="none" xmlns="http://www.w3.org/2000/svg">
<path d="M49.5 0C22.2994 0 0.282257 22.0127 0.282257 49.2177C0.282257 61.1445 4.57044 72.5735 12.3817 81.5366V101.922C12.3817 104.669 15.7082 106.022 17.6329 104.097L28.1542 93.5753C60.51 109.143 98.7179 85.7499 98.7179 49.2175C98.7177 22.0172 76.705 0 49.5 0V0ZM29.0252 87.1139C27.8283 86.4659 26.3479 86.6816 25.3853 87.6438L18.5338 94.4953V80.3631C18.5338 79.5943 18.2459 78.8534 17.7268 78.2861C10.4449 70.3311 6.4346 60.0077 6.4346 49.2175C6.4346 25.4711 25.7538 6.15193 49.5002 6.15193C73.2466 6.15193 92.5658 25.4711 92.5658 49.2175C92.5656 81.8934 57.4779 102.521 29.0252 87.1139Z" fill="#2C830E"/>
<path d="M49.5 21.7174C39.3174 21.7174 31.0331 30.0017 31.0331 40.1843C31.0331 41.8831 32.4104 43.2605 34.1093 43.2605C35.8081 43.2605 37.1854 41.8831 37.1854 40.1843C37.1854 33.3939 42.7098 27.8695 49.5002 27.8695C56.2905 27.8695 61.8149 33.3939 61.8149 40.1843C61.8149 46.9746 56.2903 52.499 49.5 52.499C47.8011 52.499 46.4238 53.8763 46.4238 55.5752V64.7932C46.4238 66.4921 47.8011 67.8694 49.5 67.8694C51.1988 67.8694 52.5761 66.4921 52.5761 64.7932V58.395C61.2997 56.926 67.9668 49.3191 67.9668 40.1843C67.9668 30.0017 59.6825 21.7174 49.5 21.7174Z" fill="#2C830E"/>
<path d="M49.5 80.1635C51.1933 80.1635 52.5659 78.7908 52.5659 77.0975C52.5659 75.4043 51.1933 74.0316 49.5 74.0316C47.8067 74.0316 46.4341 75.4043 46.4341 77.0975C46.4341 78.7908 47.8067 80.1635 49.5 80.1635Z" fill="#2C830E"/>
</svg>
